# xmcd
#
# Track frame offsets:
#  150
#  17077
#  31123
#  45437
#  60633
#  77532
#  90958
#  109396
#  126814
#  138520
#
# Disc length: 2027 seconds
#
# Revision: 0
# Processed by: cddbd v1.5.1PL2 Copyright (c) Steve Scherf et al.
# Submitted via: Collectorz.com_Music_Collector 6.9
#
DISCID=7307e90a
DTITLE=Jeff St John - So Far So Good
DYEAR=1900
DGENRE=Blues
TTITLE0=Rock "N' Roll Man
TTITLE1=Love Is Forever (what do you think of a love like that)
TTITLE2=Starbrite
TTITLE3=Hold On
TTITLE4=Redneck Friend
TTITLE5=High Life
TTITLE6=I Can Heal You
TTITLE7=The Dreamer
TTITLE8=Putting My Heart On The Line
TTITLE9=Fool In Love
EXTD=
EXTT0=
EXTT1=
EXTT2=
EXTT3=
EXTT4=
EXTT5=
EXTT6=
EXTT7=
EXTT8=
EXTT9=
PLAYORDER=
